<?xml version="1.0" standalone="no"?>
<!DOCTYPE svg PUBLIC "-//W3C//DTD SVG 20010904//EN"
 "http://www.w3.org/TR/2001/REC-SVG-20010904/DTD/svg10.dtd">
<svg version="1.0" xmlns="http://www.w3.org/2000/svg"
 width="1006.000000pt" height="1080.000000pt" viewBox="0 0 1006.000000 1080.000000"
 preserveAspectRatio="xMidYMid meet">

<g transform="translate(0.000000,1080.000000) scale(0.100000,-0.100000)"
fill="#000000" stroke="none">
<path d="M7838 10510 c-71 -18 -163 -73 -232 -139 -37 -36 -294 -298 -570
-581 -1080 -1110 -1176 -1211 -1176 -1237 0 -13 601 -607 699 -692 l75 -64
195 199 c174 176 652 670 1185 1223 369 384 445 475 480 576 23 66 32 224 16
298 -32 157 -148 300 -304 378 l-89 44 -121 2 c-67 1 -138 -2 -158 -7z"/>
<path d="M2815 10370 c-427 -5 -442 -6 -510 -29 -240 -80 -426 -243 -530 -464
-66 -140 -68 -154 -73 -559 l-4 -368 549 0 c301 0 612 -3 691 -7 l142 -6 0
-1149 0 -1148 150 0 150 0 -1 798 c-1 438 -4 1130 -8 1537 l-6 740 -42 105
c-24 58 -63 139 -88 179 -25 41 -44 76 -41 78 2 2 806 0 1787 -4 l1784 -9 78
-33 c76 -33 78 -34 99 -15 33 29 168 185 168 194 0 11 -162 94 -247 127 l-68
27 -505 7 c-576 8 -2815 7 -3475 -1z m-143 -311 c114 -24 252 -125 317 -233
65 -109 82 -175 88 -342 3 -82 3 -171 -1 -197 l-7 -47 -538 0 -538 0 3 138 c9
315 8 302 50 383 75 144 209 254 356 293 64 18 198 20 270 5z"/>
<path d="M5655 8373 c-88 -72 -114 -137 -81 -201 28 -55 699 -702 727 -702 47
0 143 85 176 155 16 34 16 38 -2 73 -22 42 -382 411 -583 598 -89 83 -140 124
-155 124 -13 0 -49 -21 -82 -47z"/>
<path d="M7317 8162 l-138 -138 3 -1499 3 -1500 24 -70 c30 -91 73 -175 127
-251 36 -51 41 -63 28 -68 -8 -3 -590 -6 -1293 -6 l-1277 0 -47 -132 c-26 -73
-47 -136 -47 -141 0 -4 782 -6 1738 -5 l1737 3 99 37 c54 20 123 52 153 70
147 89 276 229 349 383 74 153 75 164 81 583 l6 372 -697 0 -696 0 -1 443 c-1
243 -5 805 -8 1250 l-6 807 -138 -138z m896 -2662 l349 0 -4 -207 c-5 -240
-14 -278 -95 -396 -74 -109 -201 -198 -323 -226 -69 -16 -219 -13 -280 5 -142
42 -269 154 -341 298 l-44 89 -5 220 c-3 120 -3 221 0 224 3 3 92 3 199 -1
107 -3 351 -6 544 -6z"/>
<path d="M5425 7984 c-83 -50 -212 -113 -492 -239 l-242 -110 -20 -111 c-25
-131 -108 -473 -153 -624 -35 -119 -93 -274 -163 -434 -40 -92 -45 -112 -36
-132 6 -13 19 -24 30 -24 12 0 106 92 259 253 461 486 462 488 462 577 0 44 5
63 25 90 75 102 195 120 279 42 72 -67 75 -174 8 -245 -41 -44 -75 -57 -144
-57 l-63 0 -70 -73 c-85 -88 -483 -512 -584 -621 l-73 -79 25 -24 24 -25 140
71 c340 170 640 271 1078 364 l60 12 38 105 c68 192 139 373 214 550 l74 175
-300 298 c-165 163 -303 297 -308 297 -4 0 -35 -16 -68 -36z"/>
<path d="M3100 6354 c-14 -2 -56 -9 -94 -15 -210 -34 -476 -164 -648 -317
-234 -207 -398 -504 -444 -804 -19 -120 -13 -366 10 -484 31 -155 105 -329
202 -475 70 -107 279 -313 388 -384 147 -96 320 -164 506 -201 103 -20 363
-14 480 11 333 74 597 240 796 504 89 118 197 338 229 466 32 125 49 318 41
455 -35 590 -484 1105 -1068 1224 -75 16 -347 29 -398 20z m385 -329 c84 -18
254 -98 345 -163 199 -141 351 -360 410 -592 45 -179 36 -434 -21 -602 -106
-309 -381 -578 -694 -678 -59 -19 -99 -23 -250 -27 -169 -4 -186 -3 -280 21
-55 14 -145 48 -200 74 -274 133 -455 347 -562 664 -27 80 -28 90 -28 288 1
204 1 205 33 297 55 161 112 260 222 390 152 178 395 315 610 343 90 12 331 4
415 -15z"/>
<path d="M3711 5489 c-20 -8 -108 -96 -541 -542 l-95 -98 -128 120 c-70 67
-141 128 -157 136 -66 34 -152 3 -191 -70 -29 -55 -22 -79 50 -163 94 -110
347 -345 391 -365 77 -34 88 -26 570 483 123 129 241 257 263 285 35 45 39 54
35 96 -5 53 -38 106 -75 120 -31 11 -91 11 -122 -2z"/>
<path d="M960 2780 c-283 -35 -533 -220 -655 -483 -107 -231 -96 -529 26 -746
111 -197 286 -329 521 -393 71 -20 107 -23 243 -23 118 1 177 5 225 18 137 36
355 164 382 223 12 25 9 30 -62 94 l-75 68 -41 -38 c-134 -124 -309 -182 -497
-165 -160 14 -267 63 -379 175 -131 131 -195 299 -185 485 10 177 55 283 167
396 127 128 272 189 449 189 161 0 288 -43 415 -141 l67 -52 75 74 c41 40 74
76 74 80 0 14 -160 123 -234 158 -150 72 -342 102 -516 81z"/>
<path d="M3588 2775 c-5 -5 -8 -372 -8 -817 l0 -808 115 0 115 0 0 250 0 250
263 0 263 0 149 -216 c83 -119 160 -229 172 -244 29 -35 64 -42 178 -34 l92 7
-96 136 c-134 189 -246 352 -260 378 -11 21 -6 26 71 76 46 29 102 75 126 102
130 148 168 379 93 571 -73 187 -240 297 -500 330 -128 16 -762 31 -773 19z
m781 -215 c116 -19 219 -90 269 -184 24 -46 27 -61 27 -156 0 -95 -3 -111 -28
-162 -50 -103 -170 -182 -297 -198 -36 -5 -170 -11 -297 -14 l-233 -5 0 365 0
364 248 0 c136 0 276 -5 311 -10z"/>
<path d="M2128 2763 l-108 -4 0 -804 0 -805 600 0 600 0 0 100 0 100 -485 0
-485 0 0 265 0 265 415 0 415 0 0 95 0 95 -415 0 -415 0 0 250 0 250 470 0
470 0 0 93 0 94 -272 6 c-260 7 -561 6 -790 0z"/>
<path d="M5063 2764 c-9 -4 -13 -34 -13 -100 l0 -94 280 0 280 0 0 -710 0
-710 120 0 121 0 -5 203 c-3 111 -8 430 -11 710 l-6 507 274 0 274 0 7 91 c4
50 5 93 4 95 -6 6 -1313 14 -1325 8z"/>
<path d="M6670 1961 l0 -811 111 0 110 0 -3 799 c-2 440 -5 802 -8 805 -3 2
-51 8 -108 12 l-102 7 0 -812z"/>
<path d="M7493 2763 l-143 -4 0 -804 0 -805 110 0 110 0 0 335 0 335 414 0
414 0 7 41 c4 22 4 65 0 95 l-6 54 -412 2 -412 3 -3 278 -2 277 460 0 460 0 0
93 0 94 -212 6 c-200 7 -469 6 -785 0z"/>
<path d="M8594 2744 c3 -8 93 -156 200 -327 107 -172 246 -397 310 -502 l116
-190 0 -287 0 -288 120 0 120 0 0 283 0 284 67 109 c354 581 533 885 533 908
l0 26 -97 0 -98 -1 -56 -92 c-175 -289 -433 -704 -445 -717 -18 -18 4 -51
-286 417 l-243 392 -124 1 c-108 0 -122 -2 -117 -16z"/>
<path d="M968 701 c-90 -29 -140 -93 -146 -185 -5 -83 24 -139 92 -181 44 -26
58 -30 125 -30 53 0 86 6 109 18 l32 18 0 84 0 85 -29 0 c-33 0 -41 -14 -41
-75 0 -57 -16 -69 -85 -63 -61 5 -90 25 -111 75 -19 44 -17 77 6 122 34 67
110 87 197 50 29 -12 35 -11 49 3 23 22 11 46 -30 63 -44 19 -133 27 -168 16z"/>
<path d="M7333 700 c-92 -22 -157 -104 -158 -199 -1 -144 137 -235 283 -187
27 9 57 25 66 35 15 16 15 19 -4 36 -19 18 -22 18 -56 2 -66 -32 -153 -16
-188 35 -10 15 -16 44 -16 84 0 54 3 66 29 93 26 28 35 31 91 31 36 0 73 -6
92 -16 29 -15 32 -15 51 5 27 27 13 44 -59 71 -57 21 -79 23 -131 10z"/>
<path d="M1280 505 l0 -195 144 0 c145 0 170 6 146 35 -7 9 -46 16 -111 21
l-99 7 0 48 0 49 74 0 c90 0 106 5 106 36 0 22 -3 23 -87 26 l-88 3 -3 53 -3
52 93 0 c97 0 118 8 118 42 0 17 -12 18 -145 18 l-145 0 0 -195z"/>
<path d="M1660 505 l0 -195 34 0 34 0 8 122 9 122 69 -89 c105 -136 125 -155
163 -155 l33 0 0 195 0 195 -35 0 -35 0 -1 -77 c0 -43 -4 -100 -7 -127 l-7
-48 -65 83 c-104 135 -138 169 -171 169 l-29 0 0 -195z"/>
<path d="M2110 505 l0 -195 150 0 150 0 0 24 c0 32 -15 36 -121 36 l-89 0 0
50 0 50 73 0 c79 0 115 15 104 44 -5 13 -22 16 -92 16 l-85 0 0 55 0 54 98 3
97 3 3 28 3 27 -145 0 -146 0 0 -195z"/>
<path d="M2490 505 l0 -196 38 3 37 3 3 53 3 52 43 0 c41 0 45 -3 80 -55 34
-51 39 -55 76 -55 22 0 40 3 40 8 0 4 -16 31 -36 61 l-36 53 36 30 c50 41 63
94 37 152 -29 66 -61 79 -203 84 l-118 4 0 -197z m209 120 c46 -23 56 -80 21
-115 -16 -16 -33 -20 -85 -20 l-65 0 0 75 0 75 50 0 c28 0 64 -7 79 -15z"/>
<path d="M3022 687 c-7 -8 -48 -96 -91 -196 l-80 -181 40 0 c38 0 42 3 56 40
l16 41 100 -3 100 -3 12 -35 c11 -32 16 -35 53 -38 23 -2 42 0 41 5 0 4 -35
91 -78 193 l-77 185 -40 3 c-26 2 -45 -2 -52 -11z m82 -158 c14 -37 22 -69 19
-73 -10 -9 -111 -7 -117 2 -5 9 24 95 46 135 13 26 22 14 52 -64z"/>
<path d="M3272 673 c3 -27 6 -28 61 -31 l57 -3 0 -164 0 -165 40 0 40 0 0 165
0 164 63 3 c59 3 62 4 65 31 l3 27 -166 0 -166 0 3 -27z"/>
<path d="M3660 505 l0 -195 150 0 150 0 0 24 c0 32 -15 36 -121 36 l-89 0 0
50 0 50 68 0 c91 0 114 7 110 34 -3 19 -10 21 -90 24 l-88 3 0 54 0 54 98 3
97 3 3 28 3 27 -145 0 -146 0 0 -195z"/>
<path d="M4326 691 c-4 -6 27 -93 68 -193 l74 -183 49 -3 49 -3 72 178 c39 98
74 186 78 196 5 14 0 17 -23 17 -40 0 -53 -17 -107 -145 -50 -118 -62 -142
-70 -135 -2 3 -29 66 -60 140 -54 135 -54 135 -89 138 -19 2 -38 -2 -41 -7z"/>
<path d="M4770 505 l0 -195 150 0 150 0 0 24 c0 32 -15 36 -121 36 l-89 0 0
50 0 50 78 0 c84 0 120 14 109 44 -5 13 -22 16 -97 16 l-90 0 0 55 0 54 103 3
102 3 3 28 3 27 -150 0 -151 0 0 -195z"/>
<path d="M5150 506 l0 -196 35 0 c37 0 41 7 47 75 3 27 7 30 44 33 39 3 42 0
80 -50 34 -45 45 -53 77 -56 20 -2 37 -1 37 2 0 3 -13 27 -30 53 -16 26 -30
51 -30 57 0 6 14 25 31 42 40 41 50 113 25 162 -26 51 -66 65 -198 70 l-118 4
0 -196z m224 111 c21 -14 26 -25 26 -56 0 -52 -29 -71 -110 -71 l-60 0 0 76 0
76 59 -4 c32 -2 70 -12 85 -21z"/>
<path d="M5560 505 l0 -195 40 0 40 0 0 195 0 195 -40 0 -40 0 0 -195z"/>
<path d="M5750 505 l0 -195 40 0 40 0 0 75 0 75 74 0 c90 0 106 5 106 36 0 22
-3 23 -87 26 l-88 3 -3 58 -3 57 94 0 c96 0 117 8 117 42 0 17 -12 18 -145 18
l-145 0 0 -195z"/>
<path d="M6096 633 c100 -180 104 -191 104 -259 l0 -64 44 0 44 0 4 73 c3 67
8 80 71 192 l67 120 -31 3 c-40 4 -50 -6 -98 -93 -23 -41 -44 -76 -49 -79 -4
-2 -23 21 -41 52 -62 105 -78 122 -117 122 l-36 0 38 -67z"/>
<path d="M6893 688 c-11 -13 -163 -361 -163 -372 0 -12 68 -6 78 7 6 6 13 24
17 40 l7 27 103 0 103 0 7 -27 c4 -16 11 -34 17 -40 14 -17 78 -17 78 0 -1 6
-36 93 -79 192 l-78 180 -40 3 c-24 2 -44 -2 -50 -10z m81 -157 c16 -38 23
-68 18 -73 -5 -5 -33 -8 -63 -6 -47 3 -54 6 -52 23 3 34 54 139 62 129 4 -5
20 -38 35 -73z"/>
<path d="M7611 608 c1 -51 4 -138 8 -193 l6 -100 30 0 c27 0 30 4 37 40 4 22
7 59 7 83 l1 42 53 0 c28 0 69 -3 90 -6 l37 -7 0 -78 0 -79 45 0 45 0 0 195 0
195 -45 0 -45 0 0 -75 0 -75 -95 0 -95 0 0 75 0 75 -40 0 -40 0 1 -92z"/>
<path d="M8060 505 l0 -195 45 0 45 0 0 195 0 195 -45 0 -45 0 0 -195z"/>
<path d="M8250 505 l0 -195 150 0 150 0 0 24 c0 32 -15 36 -128 36 l-97 0 3
50 4 50 77 0 c82 0 117 14 106 42 -5 12 -27 18 -95 23 l-88 7 -4 49 -3 48 105
3 105 3 3 28 3 27 -145 0 -146 0 0 -195z"/>
<path d="M8591 688 c0 -7 33 -94 72 -193 l73 -180 41 -3 c53 -4 53 -4 138 203
37 88 69 166 72 173 7 17 -52 16 -70 -2 -7 -8 -38 -71 -68 -140 -30 -69 -57
-126 -60 -126 -4 0 -32 63 -64 140 l-58 140 -38 0 c-25 0 -39 -5 -38 -12z"/>
<path d="M9040 505 l0 -195 150 0 150 0 0 24 c0 32 -15 36 -126 36 l-94 0 0
50 0 50 79 0 c95 0 111 5 111 36 0 23 -3 23 -92 26 l-93 3 -3 53 -3 52 95 0
c111 0 126 4 126 36 l0 24 -150 0 -150 0 0 -195z"/>
<path d="M4042 378 c-13 -13 -15 -37 -6 -62 10 -26 63 -21 73 7 18 49 -32 90
-67 55z"/>
<path d="M6444 366 c-12 -50 40 -88 74 -54 17 17 15 65 -4 72 -35 14 -64 6
-70 -18z"/>
<path d="M9413 374 c-3 -9 -2 -28 3 -43 17 -48 84 -36 84 15 0 39 -74 62 -87
28z"/>
</g>
</svg>
